<?xml version="1.0" standalone="no"?>
<!DOCTYPE svg PUBLIC "-//W3C//DTD SVG 20010904//EN"
 "http://www.w3.org/TR/2001/REC-SVG-20010904/DTD/svg10.dtd">
<svg version="1.0" xmlns="http://www.w3.org/2000/svg"
 width="500.000000pt" height="500.000000pt" viewBox="0 0 500.000000 500.000000"
 preserveAspectRatio="xMidYMid meet">

<g transform="translate(0.000000,500.000000) scale(0.100000,-0.100000)"
fill="#000000" stroke="none">
<path d="M0 2500 l0 -2500 2500 0 2500 0 0 2500 0 2500 -2500 0 -2500 0 0
-2500z m2503 565 c20 -10 37 -23 37 -27 0 -5 -11 -31 -25 -58 -25 -49 -25 -49
-52 -35 -45 24 -144 19 -184 -8 -103 -70 -106 -197 -6 -271 38 -28 142 -34
186 -11 18 9 34 15 36 13 1 -2 15 -27 29 -56 l27 -53 -48 -21 c-71 -32 -174
-35 -244 -9 -155 59 -233 212 -184 362 24 70 100 148 175 178 69 27 193 25
253 -4z m-785 -61 l50 -76 51 76 52 76 80 0 80 0 -45 -62 c-25 -35 -66 -93
-92 -130 l-46 -68 106 -145 c58 -80 106 -148 106 -150 0 -3 -15 -5 -34 -5 -34
0 -35 1 -29 35 13 80 -85 105 -124 32 -8 -15 -16 -7 -57 53 l-47 72 -66 -96
-66 -96 -174 0 -173 0 0 188 0 187 47 35 c26 19 68 61 93 92 l45 58 96 0 96 0
51 -76z m1002 -34 l0 -110 90 0 90 0 0 110 0 110 65 0 65 0 0 -280 0 -280 -65
0 -65 0 0 110 0 110 -90 0 -90 0 0 -110 0 -110 -65 0 -65 0 0 280 0 280 65 0
65 0 0 -110z m791 -165 c60 -148 109 -273 109 -277 0 -5 -31 -8 -68 -8 l-68 0
-18 55 -17 55 -108 0 -108 0 -20 -52 -20 -53 -70 -3 -71 -3 104 258 c57 142
108 268 114 281 9 21 16 23 71 20 l61 -3 109 -270z m-1543 -207 c30 -30 3 -82
-40 -76 -29 4 -47 50 -28 72 15 19 51 21 68 4z"/>
<path d="M1420 2915 l0 -55 90 0 90 0 0 -60 0 -60 -90 0 -90 0 0 -55 0 -55 63
0 c73 0 70 -3 152 115 l54 78 -51 73 -52 74 -83 0 -83 0 0 -55z"/>
<path d="M3310 2832 c-14 -37 -26 -70 -28 -74 -2 -5 24 -8 57 -8 l60 0 -25 68
c-14 37 -29 70 -32 74 -4 4 -19 -23 -32 -60z"/>
</g>
</svg>
