<?xml version="1.0" standalone="no"?>
<!DOCTYPE svg PUBLIC "-//W3C//DTD SVG 20010904//EN"
 "http://www.w3.org/TR/2001/REC-SVG-20010904/DTD/svg10.dtd">
<svg version="1.0" xmlns="http://www.w3.org/2000/svg"
 width="500.000000pt" height="500.000000pt" viewBox="0 0 500.000000 500.000000"
 preserveAspectRatio="xMidYMid meet">

<g transform="translate(0.000000,500.000000) scale(0.100000,-0.100000)"
fill="#000000" stroke="none">
<path d="M2250 3068 c-110 -42 -190 -155 -190 -268 0 -193 206 -334 401 -276
87 26 88 27 57 90 l-27 55 -28 -14 c-45 -24 -144 -19 -184 8 -51 34 -79 82
-79 135 0 118 109 189 237 156 30 -8 55 -14 57 -14 1 0 13 23 26 51 28 58 27
59 -54 84 -68 21 -150 18 -216 -7z"/>
<path d="M1430 3022 c-25 -31 -67 -73 -93 -92 l-47 -35 0 -187 0 -188 174 0
173 0 38 58 c21 31 51 74 66 95 l27 37 47 -67 c26 -36 50 -76 55 -87 14 -38
47 -59 77 -52 15 4 47 10 71 14 l43 7 -106 147 c-66 92 -103 153 -99 160 4 7
45 66 91 131 l83 117 -80 0 -79 0 -52 -76 -51 -76 -50 76 -51 76 -96 0 -96 0
-45 -58z m209 -126 l50 -74 -67 -96 -67 -96 -67 0 -68 0 0 60 0 60 90 0 90 0
0 55 0 55 -90 0 -90 0 0 55 0 55 85 0 84 0 50 -74z m329 -298 c30 -30 3 -82
-40 -76 -29 4 -47 50 -28 72 15 19 51 21 68 4z"/>
<path d="M2590 2800 l0 -280 65 0 64 0 3 113 3 112 88 3 87 3 0 -116 0 -115
65 0 65 0 0 280 0 280 -65 0 -65 0 0 -110 0 -110 -90 0 -90 0 0 110 0 110 -65
0 -65 0 0 -280z"/>
<path d="M3271 3058 c-5 -13 -54 -135 -110 -272 -56 -137 -101 -253 -101 -258
0 -5 30 -8 66 -6 l66 3 20 53 19 52 108 0 108 0 19 -52 19 -53 68 -3 c37 -2
67 0 67 3 0 4 -48 124 -106 268 -58 144 -108 268 -111 275 -3 8 -26 12 -64 12
-52 0 -61 -3 -68 -22z m104 -241 c14 -37 25 -70 25 -72 0 -3 -27 -5 -60 -5
-33 0 -60 3 -60 7 0 20 56 151 62 145 4 -4 18 -37 33 -75z"/>
</g>
</svg>
